<svg width="11" height="12" viewBox="0 0 11 12" fill="none" xmlns="http://www.w3.org/2000/svg">
<path d="M5.73301 5.15669L3.83266 5.79156L2.88457 2.95366L4.75562 2.32858C5.14435 2.19872 5.55772 2.22549 5.92104 2.40278L5.92115 2.40283C6.28448 2.5799 6.55256 2.88528 6.67893 3.26354C6.80528 3.64174 6.77452 4.04663 6.59056 4.40658L6.59044 4.4068C6.41133 4.75812 6.10852 5.02313 5.73301 5.15669ZM1.59333 3.38437L1.98863 3.25231L4.32025 10.2315L3.92495 10.3636C3.68162 10.4449 3.54205 10.7082 3.62534 10.9575C3.70863 11.2069 3.97845 11.3334 4.22179 11.2521L5.87729 10.6991L6.00548 11.0828C6.08877 11.3321 6.35859 11.4586 6.60193 11.3773C6.84526 11.296 6.98483 11.0327 6.90154 10.7834L6.77335 10.3997L7.15108 10.2735L7.27926 10.6572C7.36255 10.9065 7.63238 11.0331 7.87571 10.9518C8.11951 10.8703 8.25814 10.6068 8.175 10.358L8.04676 9.97409C9.43494 9.49245 10.194 7.99869 9.73202 6.61583C9.38735 5.58412 8.46195 4.91185 7.43373 4.82353C7.71744 4.26549 7.78768 3.60181 7.57469 2.96428C7.22379 1.91393 6.21689 1.26929 5.15308 1.31236L4.99326 0.833968L4.99325 0.833927C4.9101 0.585182 4.64074 0.458236 4.39719 0.5396C4.15409 0.620815 4.01422 0.883999 4.09748 1.13323L4.22597 1.51784L3.84822 1.64403L3.71975 1.25947C3.71974 1.25945 3.71974 1.25944 3.71973 1.25943C3.63648 1.01017 3.36649 0.883938 3.12341 0.965145C2.88031 1.04636 2.74043 1.30954 2.82369 1.55877L2.95218 1.94338L2.45309 2.11012L2.45289 2.10952L2.21577 2.18873L1.29648 2.49585C1.05313 2.57714 0.913613 2.84052 0.996887 3.08978C1.08017 3.33906 1.34998 3.46566 1.59333 3.38437ZM8.73514 8.22566L8.73509 8.22575C8.52466 8.6384 8.16476 8.94717 7.71945 9.09594L5.21599 9.9323L4.1296 6.6804L6.00064 6.05532C6.01326 6.0511 6.02536 6.04668 6.03421 6.04344L6.63285 5.84344C7.078 5.69473 7.55146 5.72562 7.9678 5.92877L7.96789 5.92882C8.38418 6.13173 8.69148 6.48165 8.83628 6.91508C8.98117 7.34876 8.94585 7.81288 8.73514 8.22566Z" fill="white" stroke="white" stroke-width="0.5"/>
</svg>
