<svg width="78" height="14" viewBox="0 0 78 14" fill="none" xmlns="http://www.w3.org/2000/svg">
<mask id="path-1-outside-1" maskUnits="userSpaceOnUse" x="0.0110245" y="-0.625488" width="78" height="14" fill="black">
<rect fill="white" x="0.0110245" y="-0.625488" width="78" height="14"/>
<path d="M1.01102 7.09611C1.01102 5.98672 1.26269 4.99153 1.76601 4.11055C2.26934 3.21868 2.95321 2.5226 3.81761 2.02228C4.69296 1.52197 5.66132 1.27181 6.72268 1.27181C7.97005 1.27181 9.05877 1.57091 9.98882 2.16911C10.9189 2.76731 11.5973 3.61567 12.024 4.71419H10.235C9.9177 4.02897 9.45814 3.50147 8.85634 3.13167C8.26548 2.76188 7.55426 2.57698 6.72268 2.57698C5.92392 2.57698 5.20723 2.76188 4.5726 3.13167C3.93797 3.50147 3.44012 4.02897 3.07904 4.71419C2.71796 5.38852 2.53741 6.1825 2.53741 7.09611C2.53741 7.99885 2.71796 8.79283 3.07904 9.47804C3.44012 10.1524 3.93797 10.6744 4.5726 11.0442C5.20723 11.414 5.92392 11.5989 6.72268 11.5989C7.55426 11.5989 8.26548 11.4195 8.85634 11.0606C9.45814 10.6908 9.9177 10.1633 10.235 9.47804H12.024C11.5973 10.5657 10.9189 11.4086 9.98882 12.0068C9.05877 12.5941 7.97005 12.8878 6.72268 12.8878C5.66132 12.8878 4.69296 12.6431 3.81761 12.1536C2.95321 11.6533 2.26934 10.9627 1.76601 10.0817C1.26269 9.20069 1.01102 8.2055 1.01102 7.09611Z"/>
<path d="M18.17 12.9367C17.3274 12.9367 16.5615 12.7464 15.8722 12.3657C15.1938 11.985 14.6576 11.4467 14.2637 10.7506C13.8808 10.0436 13.6893 9.22788 13.6893 8.30339C13.6893 7.38977 13.8862 6.58492 14.2801 5.88883C14.685 5.18187 15.2321 4.64349 15.9214 4.27369C16.6107 3.89302 17.3821 3.70268 18.2356 3.70268C19.0891 3.70268 19.8605 3.89302 20.5498 4.27369C21.2392 4.64349 21.7808 5.17643 22.1747 5.87252C22.5795 6.56861 22.782 7.3789 22.782 8.30339C22.782 9.22788 22.5741 10.0436 22.1583 10.7506C21.7534 11.4467 21.2009 11.985 20.5006 12.3657C19.8003 12.7464 19.0234 12.9367 18.17 12.9367ZM18.17 11.6316C18.7061 11.6316 19.2094 11.5065 19.6799 11.2563C20.1504 11.0062 20.5279 10.6309 20.8124 10.1306C21.1079 9.63031 21.2556 9.02123 21.2556 8.30339C21.2556 7.58555 21.1133 6.97647 20.8288 6.47616C20.5443 5.97585 20.1723 5.60605 19.7128 5.36677C19.2532 5.11661 18.7554 4.99153 18.2192 4.99153C17.6721 4.99153 17.1688 5.11661 16.7092 5.36677C16.2606 5.60605 15.8995 5.97585 15.626 6.47616C15.3524 6.97647 15.2157 7.58555 15.2157 8.30339C15.2157 9.03211 15.347 9.64662 15.6096 10.1469C15.8831 10.6472 16.2442 11.0225 16.6928 11.2726C17.1414 11.5119 17.6338 11.6316 18.17 11.6316Z"/>
<path d="M25.5171 2.39752C25.2326 2.39752 24.9919 2.29963 24.795 2.10386C24.598 1.90808 24.4995 1.6688 24.4995 1.38601C24.4995 1.10323 24.598 0.863949 24.795 0.668174C24.9919 0.472399 25.2326 0.374512 25.5171 0.374512C25.7907 0.374512 26.0205 0.472399 26.2065 0.668174C26.4034 0.863949 26.5019 1.10323 26.5019 1.38601C26.5019 1.6688 26.4034 1.90808 26.2065 2.10386C26.0205 2.29963 25.7907 2.39752 25.5171 2.39752ZM26.2393 3.84951V12.7899H24.7457V3.84951H26.2393Z"/>
<path d="M33.167 3.68637C34.2612 3.68637 35.1475 4.0181 35.8259 4.68156C36.5043 5.33414 36.8435 6.28038 36.8435 7.52029V12.7899H35.3663V7.73238C35.3663 6.84052 35.142 6.16074 34.6934 5.69306C34.2448 5.2145 33.6321 4.97522 32.8552 4.97522C32.0674 4.97522 31.4382 5.21994 30.9677 5.70937C30.5082 6.19881 30.2784 6.91121 30.2784 7.84658V12.7899H28.7848V3.84951H30.2784V5.12205C30.5738 4.66524 30.9732 4.31176 31.4765 4.0616C31.9908 3.81145 32.5543 3.68637 33.167 3.68637Z"/>
<path d="M45.0113 6.93297C45.4271 6.99822 45.8046 7.16681 46.1438 7.43872C46.4939 7.71063 46.7675 8.0478 46.9644 8.45022C47.1723 8.85265 47.2763 9.28226 47.2763 9.73907C47.2763 10.3155 47.1285 10.8376 46.8331 11.3053C46.5377 11.7621 46.1055 12.1264 45.5365 12.3983C44.9785 12.6594 44.3165 12.7899 43.5506 12.7899H39.2832V1.41864H43.3864C44.1633 1.41864 44.8253 1.54916 45.3724 1.81019C45.9195 2.06035 46.3298 2.40296 46.6033 2.83801C46.8769 3.27307 47.0137 3.7625 47.0137 4.30632C47.0137 4.98066 46.8276 5.54079 46.4556 5.98672C46.0945 6.42178 45.6131 6.73719 45.0113 6.93297ZM40.7768 6.32933H43.288C43.9882 6.32933 44.5299 6.16618 44.9128 5.83989C45.2958 5.5136 45.4873 5.06223 45.4873 4.48578C45.4873 3.90933 45.2958 3.45796 44.9128 3.13167C44.5299 2.80538 43.9773 2.64224 43.2551 2.64224H40.7768V6.32933ZM43.4193 11.5663C44.1633 11.5663 44.7432 11.3923 45.159 11.0442C45.5748 10.6962 45.7827 10.2122 45.7827 9.59224C45.7827 8.96141 45.5639 8.46654 45.1262 8.10762C44.6885 7.73782 44.1031 7.55292 43.37 7.55292H40.7768V11.5663H43.4193Z"/>
<path d="M48.7909 8.28708C48.7909 7.37346 48.9769 6.57405 49.3489 5.88883C49.7209 5.19275 50.2297 4.65437 50.8753 4.27369C51.5318 3.89302 52.2594 3.70268 53.0582 3.70268C53.846 3.70268 54.5299 3.87127 55.1098 4.20843C55.6897 4.5456 56.1219 4.96978 56.4064 5.48097V3.84951H57.9164V12.7899H56.4064V11.1258C56.111 11.6479 55.6678 12.0829 55.077 12.431C54.497 12.7681 53.8186 12.9367 53.0418 12.9367C52.243 12.9367 51.5209 12.741 50.8753 12.3494C50.2297 11.9579 49.7209 11.4086 49.3489 10.7016C48.9769 9.99467 48.7909 9.18981 48.7909 8.28708ZM56.4064 8.30339C56.4064 7.62905 56.2696 7.04173 55.9961 6.54142C55.7225 6.0411 55.3505 5.66043 54.88 5.3994C54.4204 5.12749 53.9116 4.99153 53.3536 4.99153C52.7956 4.99153 52.2868 5.12205 51.8272 5.38308C51.3677 5.64412 51.0011 6.02479 50.7276 6.5251C50.454 7.02542 50.3172 7.61274 50.3172 8.28708C50.3172 8.97229 50.454 9.57049 50.7276 10.0817C51.0011 10.582 51.3677 10.9681 51.8272 11.24C52.2868 11.501 52.7956 11.6316 53.3536 11.6316C53.9116 11.6316 54.4204 11.501 54.88 11.24C55.3505 10.9681 55.7225 10.582 55.9961 10.0817C56.2696 9.57049 56.4064 8.97773 56.4064 8.30339Z"/>
<path d="M63.6244 12.9367C62.9351 12.9367 62.3169 12.8225 61.7698 12.5941C61.2227 12.3548 60.7905 12.0285 60.4732 11.6152C60.1559 11.1911 59.9808 10.7071 59.948 10.1633H61.4908C61.5345 10.6092 61.7424 10.9735 62.1145 11.2563C62.4974 11.5391 62.9953 11.6805 63.608 11.6805C64.177 11.6805 64.6256 11.5554 64.9539 11.3053C65.2821 11.0551 65.4463 10.7397 65.4463 10.359C65.4463 9.96748 65.2712 9.67925 64.921 9.49435C64.5709 9.29858 64.0293 9.10824 63.2962 8.92334C62.6287 8.74932 62.0816 8.5753 61.6549 8.40128C61.2391 8.21638 60.878 7.94991 60.5717 7.60186C60.2762 7.24294 60.1285 6.77526 60.1285 6.19881C60.1285 5.742 60.2653 5.32326 60.5388 4.94259C60.8124 4.56192 61.2008 4.26282 61.7041 4.04529C62.2075 3.81688 62.7819 3.70268 63.4275 3.70268C64.4232 3.70268 65.2274 3.95284 65.8402 4.45315C66.4529 4.95347 66.7812 5.63868 66.8249 6.50879H65.3314C65.2985 6.0411 65.107 5.66587 64.7569 5.38308C64.4177 5.1003 63.9582 4.9589 63.3782 4.9589C62.8421 4.9589 62.4154 5.07311 62.098 5.30151C61.7807 5.52991 61.6221 5.82901 61.6221 6.19881C61.6221 6.49247 61.7151 6.73719 61.9011 6.93297C62.098 7.11787 62.3388 7.27013 62.6232 7.38977C62.9187 7.49854 63.3235 7.62362 63.8378 7.76501C64.4834 7.93903 65.0086 8.11305 65.4134 8.28708C65.8183 8.45022 66.1629 8.70038 66.4474 9.03755C66.7429 9.37471 66.896 9.81521 66.907 10.359C66.907 10.8485 66.7702 11.289 66.4967 11.6805C66.2231 12.0721 65.8347 12.382 65.3314 12.6104C64.839 12.828 64.27 12.9367 63.6244 12.9367Z"/>
<path d="M77.2218 7.9771C77.2218 8.25988 77.2054 8.55898 77.1726 8.8744H69.9837C70.0385 9.75539 70.3394 10.446 70.8865 10.9463C71.4445 11.4358 72.1174 11.6805 72.9052 11.6805C73.5508 11.6805 74.087 11.5337 74.5137 11.24C74.9514 10.9355 75.2577 10.533 75.4328 10.0327H77.0413C76.8005 10.892 76.3191 11.5935 75.5969 12.1373C74.8748 12.6703 73.9775 12.9367 72.9052 12.9367C72.0518 12.9367 71.2858 12.7464 70.6074 12.3657C69.94 11.985 69.4148 11.4467 69.0318 10.7506C68.6488 10.0436 68.4574 9.22788 68.4574 8.30339C68.4574 7.3789 68.6434 6.56861 69.0154 5.87252C69.3874 5.17643 69.9072 4.64349 70.5746 4.27369C71.253 3.89302 72.0299 3.70268 72.9052 3.70268C73.7587 3.70268 74.5137 3.88758 75.1702 4.25738C75.8267 4.62717 76.33 5.13836 76.6802 5.79095C77.0413 6.43265 77.2218 7.16137 77.2218 7.9771ZM75.679 7.66712C75.679 7.10155 75.5532 6.61755 75.3015 6.21513C75.0498 5.80182 74.7052 5.49185 74.2675 5.2852C73.8408 5.06767 73.3648 4.9589 72.8396 4.9589C72.0846 4.9589 71.439 5.19818 70.9029 5.67675C70.3777 6.15531 70.0768 6.81876 70.0002 7.66712H75.679Z"/>
</mask>
<path d="M1.01102 7.09611C1.01102 5.98672 1.26269 4.99153 1.76601 4.11055C2.26934 3.21868 2.95321 2.5226 3.81761 2.02228C4.69296 1.52197 5.66132 1.27181 6.72268 1.27181C7.97005 1.27181 9.05877 1.57091 9.98882 2.16911C10.9189 2.76731 11.5973 3.61567 12.024 4.71419H10.235C9.9177 4.02897 9.45814 3.50147 8.85634 3.13167C8.26548 2.76188 7.55426 2.57698 6.72268 2.57698C5.92392 2.57698 5.20723 2.76188 4.5726 3.13167C3.93797 3.50147 3.44012 4.02897 3.07904 4.71419C2.71796 5.38852 2.53741 6.1825 2.53741 7.09611C2.53741 7.99885 2.71796 8.79283 3.07904 9.47804C3.44012 10.1524 3.93797 10.6744 4.5726 11.0442C5.20723 11.414 5.92392 11.5989 6.72268 11.5989C7.55426 11.5989 8.26548 11.4195 8.85634 11.0606C9.45814 10.6908 9.9177 10.1633 10.235 9.47804H12.024C11.5973 10.5657 10.9189 11.4086 9.98882 12.0068C9.05877 12.5941 7.97005 12.8878 6.72268 12.8878C5.66132 12.8878 4.69296 12.6431 3.81761 12.1536C2.95321 11.6533 2.26934 10.9627 1.76601 10.0817C1.26269 9.20069 1.01102 8.2055 1.01102 7.09611Z" fill="white"/>
<path d="M18.17 12.9367C17.3274 12.9367 16.5615 12.7464 15.8722 12.3657C15.1938 11.985 14.6576 11.4467 14.2637 10.7506C13.8808 10.0436 13.6893 9.22788 13.6893 8.30339C13.6893 7.38977 13.8862 6.58492 14.2801 5.88883C14.685 5.18187 15.2321 4.64349 15.9214 4.27369C16.6107 3.89302 17.3821 3.70268 18.2356 3.70268C19.0891 3.70268 19.8605 3.89302 20.5498 4.27369C21.2392 4.64349 21.7808 5.17643 22.1747 5.87252C22.5795 6.56861 22.782 7.3789 22.782 8.30339C22.782 9.22788 22.5741 10.0436 22.1583 10.7506C21.7534 11.4467 21.2009 11.985 20.5006 12.3657C19.8003 12.7464 19.0234 12.9367 18.17 12.9367ZM18.17 11.6316C18.7061 11.6316 19.2094 11.5065 19.6799 11.2563C20.1504 11.0062 20.5279 10.6309 20.8124 10.1306C21.1079 9.63031 21.2556 9.02123 21.2556 8.30339C21.2556 7.58555 21.1133 6.97647 20.8288 6.47616C20.5443 5.97585 20.1723 5.60605 19.7128 5.36677C19.2532 5.11661 18.7554 4.99153 18.2192 4.99153C17.6721 4.99153 17.1688 5.11661 16.7092 5.36677C16.2606 5.60605 15.8995 5.97585 15.626 6.47616C15.3524 6.97647 15.2157 7.58555 15.2157 8.30339C15.2157 9.03211 15.347 9.64662 15.6096 10.1469C15.8831 10.6472 16.2442 11.0225 16.6928 11.2726C17.1414 11.5119 17.6338 11.6316 18.17 11.6316Z" fill="white"/>
<path d="M25.5171 2.39752C25.2326 2.39752 24.9919 2.29963 24.795 2.10386C24.598 1.90808 24.4995 1.6688 24.4995 1.38601C24.4995 1.10323 24.598 0.863949 24.795 0.668174C24.9919 0.472399 25.2326 0.374512 25.5171 0.374512C25.7907 0.374512 26.0205 0.472399 26.2065 0.668174C26.4034 0.863949 26.5019 1.10323 26.5019 1.38601C26.5019 1.6688 26.4034 1.90808 26.2065 2.10386C26.0205 2.29963 25.7907 2.39752 25.5171 2.39752ZM26.2393 3.84951V12.7899H24.7457V3.84951H26.2393Z" fill="white"/>
<path d="M33.167 3.68637C34.2612 3.68637 35.1475 4.0181 35.8259 4.68156C36.5043 5.33414 36.8435 6.28038 36.8435 7.52029V12.7899H35.3663V7.73238C35.3663 6.84052 35.142 6.16074 34.6934 5.69306C34.2448 5.2145 33.6321 4.97522 32.8552 4.97522C32.0674 4.97522 31.4382 5.21994 30.9677 5.70937C30.5082 6.19881 30.2784 6.91121 30.2784 7.84658V12.7899H28.7848V3.84951H30.2784V5.12205C30.5738 4.66524 30.9732 4.31176 31.4765 4.0616C31.9908 3.81145 32.5543 3.68637 33.167 3.68637Z" fill="white"/>
<path d="M45.0113 6.93297C45.4271 6.99822 45.8046 7.16681 46.1438 7.43872C46.4939 7.71063 46.7675 8.0478 46.9644 8.45022C47.1723 8.85265 47.2763 9.28226 47.2763 9.73907C47.2763 10.3155 47.1285 10.8376 46.8331 11.3053C46.5377 11.7621 46.1055 12.1264 45.5365 12.3983C44.9785 12.6594 44.3165 12.7899 43.5506 12.7899H39.2832V1.41864H43.3864C44.1633 1.41864 44.8253 1.54916 45.3724 1.81019C45.9195 2.06035 46.3298 2.40296 46.6033 2.83801C46.8769 3.27307 47.0137 3.7625 47.0137 4.30632C47.0137 4.98066 46.8276 5.54079 46.4556 5.98672C46.0945 6.42178 45.6131 6.73719 45.0113 6.93297ZM40.7768 6.32933H43.288C43.9882 6.32933 44.5299 6.16618 44.9128 5.83989C45.2958 5.5136 45.4873 5.06223 45.4873 4.48578C45.4873 3.90933 45.2958 3.45796 44.9128 3.13167C44.5299 2.80538 43.9773 2.64224 43.2551 2.64224H40.7768V6.32933ZM43.4193 11.5663C44.1633 11.5663 44.7432 11.3923 45.159 11.0442C45.5748 10.6962 45.7827 10.2122 45.7827 9.59224C45.7827 8.96141 45.5639 8.46654 45.1262 8.10762C44.6885 7.73782 44.1031 7.55292 43.37 7.55292H40.7768V11.5663H43.4193Z" fill="white"/>
<path d="M48.7909 8.28708C48.7909 7.37346 48.9769 6.57405 49.3489 5.88883C49.7209 5.19275 50.2297 4.65437 50.8753 4.27369C51.5318 3.89302 52.2594 3.70268 53.0582 3.70268C53.846 3.70268 54.5299 3.87127 55.1098 4.20843C55.6897 4.5456 56.1219 4.96978 56.4064 5.48097V3.84951H57.9164V12.7899H56.4064V11.1258C56.111 11.6479 55.6678 12.0829 55.077 12.431C54.497 12.7681 53.8186 12.9367 53.0418 12.9367C52.243 12.9367 51.5209 12.741 50.8753 12.3494C50.2297 11.9579 49.7209 11.4086 49.3489 10.7016C48.9769 9.99467 48.7909 9.18981 48.7909 8.28708ZM56.4064 8.30339C56.4064 7.62905 56.2696 7.04173 55.9961 6.54142C55.7225 6.0411 55.3505 5.66043 54.88 5.3994C54.4204 5.12749 53.9116 4.99153 53.3536 4.99153C52.7956 4.99153 52.2868 5.12205 51.8272 5.38308C51.3677 5.64412 51.0011 6.02479 50.7276 6.5251C50.454 7.02542 50.3172 7.61274 50.3172 8.28708C50.3172 8.97229 50.454 9.57049 50.7276 10.0817C51.0011 10.582 51.3677 10.9681 51.8272 11.24C52.2868 11.501 52.7956 11.6316 53.3536 11.6316C53.9116 11.6316 54.4204 11.501 54.88 11.24C55.3505 10.9681 55.7225 10.582 55.9961 10.0817C56.2696 9.57049 56.4064 8.97773 56.4064 8.30339Z" fill="white"/>
<path d="M63.6244 12.9367C62.9351 12.9367 62.3169 12.8225 61.7698 12.5941C61.2227 12.3548 60.7905 12.0285 60.4732 11.6152C60.1559 11.1911 59.9808 10.7071 59.948 10.1633H61.4908C61.5345 10.6092 61.7424 10.9735 62.1145 11.2563C62.4974 11.5391 62.9953 11.6805 63.608 11.6805C64.177 11.6805 64.6256 11.5554 64.9539 11.3053C65.2821 11.0551 65.4463 10.7397 65.4463 10.359C65.4463 9.96748 65.2712 9.67925 64.921 9.49435C64.5709 9.29858 64.0293 9.10824 63.2962 8.92334C62.6287 8.74932 62.0816 8.5753 61.6549 8.40128C61.2391 8.21638 60.878 7.94991 60.5717 7.60186C60.2762 7.24294 60.1285 6.77526 60.1285 6.19881C60.1285 5.742 60.2653 5.32326 60.5388 4.94259C60.8124 4.56192 61.2008 4.26282 61.7041 4.04529C62.2075 3.81688 62.7819 3.70268 63.4275 3.70268C64.4232 3.70268 65.2274 3.95284 65.8402 4.45315C66.4529 4.95347 66.7812 5.63868 66.8249 6.50879H65.3314C65.2985 6.0411 65.107 5.66587 64.7569 5.38308C64.4177 5.1003 63.9582 4.9589 63.3782 4.9589C62.8421 4.9589 62.4154 5.07311 62.098 5.30151C61.7807 5.52991 61.6221 5.82901 61.6221 6.19881C61.6221 6.49247 61.7151 6.73719 61.9011 6.93297C62.098 7.11787 62.3388 7.27013 62.6232 7.38977C62.9187 7.49854 63.3235 7.62362 63.8378 7.76501C64.4834 7.93903 65.0086 8.11305 65.4134 8.28708C65.8183 8.45022 66.1629 8.70038 66.4474 9.03755C66.7429 9.37471 66.896 9.81521 66.907 10.359C66.907 10.8485 66.7702 11.289 66.4967 11.6805C66.2231 12.0721 65.8347 12.382 65.3314 12.6104C64.839 12.828 64.27 12.9367 63.6244 12.9367Z" fill="white"/>
<path d="M77.2218 7.9771C77.2218 8.25988 77.2054 8.55898 77.1726 8.8744H69.9837C70.0385 9.75539 70.3394 10.446 70.8865 10.9463C71.4445 11.4358 72.1174 11.6805 72.9052 11.6805C73.5508 11.6805 74.087 11.5337 74.5137 11.24C74.9514 10.9355 75.2577 10.533 75.4328 10.0327H77.0413C76.8005 10.892 76.3191 11.5935 75.5969 12.1373C74.8748 12.6703 73.9775 12.9367 72.9052 12.9367C72.0518 12.9367 71.2858 12.7464 70.6074 12.3657C69.94 11.985 69.4148 11.4467 69.0318 10.7506C68.6488 10.0436 68.4574 9.22788 68.4574 8.30339C68.4574 7.3789 68.6434 6.56861 69.0154 5.87252C69.3874 5.17643 69.9072 4.64349 70.5746 4.27369C71.253 3.89302 72.0299 3.70268 72.9052 3.70268C73.7587 3.70268 74.5137 3.88758 75.1702 4.25738C75.8267 4.62717 76.33 5.13836 76.6802 5.79095C77.0413 6.43265 77.2218 7.16137 77.2218 7.9771ZM75.679 7.66712C75.679 7.10155 75.5532 6.61755 75.3015 6.21513C75.0498 5.80182 74.7052 5.49185 74.2675 5.2852C73.8408 5.06767 73.3648 4.9589 72.8396 4.9589C72.0846 4.9589 71.439 5.19818 70.9029 5.67675C70.3777 6.15531 70.0768 6.81876 70.0002 7.66712H75.679Z" fill="white"/>
<path d="M1.01102 7.09611C1.01102 5.98672 1.26269 4.99153 1.76601 4.11055C2.26934 3.21868 2.95321 2.5226 3.81761 2.02228C4.69296 1.52197 5.66132 1.27181 6.72268 1.27181C7.97005 1.27181 9.05877 1.57091 9.98882 2.16911C10.9189 2.76731 11.5973 3.61567 12.024 4.71419H10.235C9.9177 4.02897 9.45814 3.50147 8.85634 3.13167C8.26548 2.76188 7.55426 2.57698 6.72268 2.57698C5.92392 2.57698 5.20723 2.76188 4.5726 3.13167C3.93797 3.50147 3.44012 4.02897 3.07904 4.71419C2.71796 5.38852 2.53741 6.1825 2.53741 7.09611C2.53741 7.99885 2.71796 8.79283 3.07904 9.47804C3.44012 10.1524 3.93797 10.6744 4.5726 11.0442C5.20723 11.414 5.92392 11.5989 6.72268 11.5989C7.55426 11.5989 8.26548 11.4195 8.85634 11.0606C9.45814 10.6908 9.9177 10.1633 10.235 9.47804H12.024C11.5973 10.5657 10.9189 11.4086 9.98882 12.0068C9.05877 12.5941 7.97005 12.8878 6.72268 12.8878C5.66132 12.8878 4.69296 12.6431 3.81761 12.1536C2.95321 11.6533 2.26934 10.9627 1.76601 10.0817C1.26269 9.20069 1.01102 8.2055 1.01102 7.09611Z" stroke="white" stroke-width="0.4" mask="url(#path-1-outside-1)"/>
<path d="M18.17 12.9367C17.3274 12.9367 16.5615 12.7464 15.8722 12.3657C15.1938 11.985 14.6576 11.4467 14.2637 10.7506C13.8808 10.0436 13.6893 9.22788 13.6893 8.30339C13.6893 7.38977 13.8862 6.58492 14.2801 5.88883C14.685 5.18187 15.2321 4.64349 15.9214 4.27369C16.6107 3.89302 17.3821 3.70268 18.2356 3.70268C19.0891 3.70268 19.8605 3.89302 20.5498 4.27369C21.2392 4.64349 21.7808 5.17643 22.1747 5.87252C22.5795 6.56861 22.782 7.3789 22.782 8.30339C22.782 9.22788 22.5741 10.0436 22.1583 10.7506C21.7534 11.4467 21.2009 11.985 20.5006 12.3657C19.8003 12.7464 19.0234 12.9367 18.17 12.9367ZM18.17 11.6316C18.7061 11.6316 19.2094 11.5065 19.6799 11.2563C20.1504 11.0062 20.5279 10.6309 20.8124 10.1306C21.1079 9.63031 21.2556 9.02123 21.2556 8.30339C21.2556 7.58555 21.1133 6.97647 20.8288 6.47616C20.5443 5.97585 20.1723 5.60605 19.7128 5.36677C19.2532 5.11661 18.7554 4.99153 18.2192 4.99153C17.6721 4.99153 17.1688 5.11661 16.7092 5.36677C16.2606 5.60605 15.8995 5.97585 15.626 6.47616C15.3524 6.97647 15.2157 7.58555 15.2157 8.30339C15.2157 9.03211 15.347 9.64662 15.6096 10.1469C15.8831 10.6472 16.2442 11.0225 16.6928 11.2726C17.1414 11.5119 17.6338 11.6316 18.17 11.6316Z" stroke="white" stroke-width="0.4" mask="url(#path-1-outside-1)"/>
<path d="M25.5171 2.39752C25.2326 2.39752 24.9919 2.29963 24.795 2.10386C24.598 1.90808 24.4995 1.6688 24.4995 1.38601C24.4995 1.10323 24.598 0.863949 24.795 0.668174C24.9919 0.472399 25.2326 0.374512 25.5171 0.374512C25.7907 0.374512 26.0205 0.472399 26.2065 0.668174C26.4034 0.863949 26.5019 1.10323 26.5019 1.38601C26.5019 1.6688 26.4034 1.90808 26.2065 2.10386C26.0205 2.29963 25.7907 2.39752 25.5171 2.39752ZM26.2393 3.84951V12.7899H24.7457V3.84951H26.2393Z" stroke="white" stroke-width="0.4" mask="url(#path-1-outside-1)"/>
<path d="M33.167 3.68637C34.2612 3.68637 35.1475 4.0181 35.8259 4.68156C36.5043 5.33414 36.8435 6.28038 36.8435 7.52029V12.7899H35.3663V7.73238C35.3663 6.84052 35.142 6.16074 34.6934 5.69306C34.2448 5.2145 33.6321 4.97522 32.8552 4.97522C32.0674 4.97522 31.4382 5.21994 30.9677 5.70937C30.5082 6.19881 30.2784 6.91121 30.2784 7.84658V12.7899H28.7848V3.84951H30.2784V5.12205C30.5738 4.66524 30.9732 4.31176 31.4765 4.0616C31.9908 3.81145 32.5543 3.68637 33.167 3.68637Z" stroke="white" stroke-width="0.4" mask="url(#path-1-outside-1)"/>
<path d="M45.0113 6.93297C45.4271 6.99822 45.8046 7.16681 46.1438 7.43872C46.4939 7.71063 46.7675 8.0478 46.9644 8.45022C47.1723 8.85265 47.2763 9.28226 47.2763 9.73907C47.2763 10.3155 47.1285 10.8376 46.8331 11.3053C46.5377 11.7621 46.1055 12.1264 45.5365 12.3983C44.9785 12.6594 44.3165 12.7899 43.5506 12.7899H39.2832V1.41864H43.3864C44.1633 1.41864 44.8253 1.54916 45.3724 1.81019C45.9195 2.06035 46.3298 2.40296 46.6033 2.83801C46.8769 3.27307 47.0137 3.7625 47.0137 4.30632C47.0137 4.98066 46.8276 5.54079 46.4556 5.98672C46.0945 6.42178 45.6131 6.73719 45.0113 6.93297ZM40.7768 6.32933H43.288C43.9882 6.32933 44.5299 6.16618 44.9128 5.83989C45.2958 5.5136 45.4873 5.06223 45.4873 4.48578C45.4873 3.90933 45.2958 3.45796 44.9128 3.13167C44.5299 2.80538 43.9773 2.64224 43.2551 2.64224H40.7768V6.32933ZM43.4193 11.5663C44.1633 11.5663 44.7432 11.3923 45.159 11.0442C45.5748 10.6962 45.7827 10.2122 45.7827 9.59224C45.7827 8.96141 45.5639 8.46654 45.1262 8.10762C44.6885 7.73782 44.1031 7.55292 43.37 7.55292H40.7768V11.5663H43.4193Z" stroke="white" stroke-width="0.4" mask="url(#path-1-outside-1)"/>
<path d="M48.7909 8.28708C48.7909 7.37346 48.9769 6.57405 49.3489 5.88883C49.7209 5.19275 50.2297 4.65437 50.8753 4.27369C51.5318 3.89302 52.2594 3.70268 53.0582 3.70268C53.846 3.70268 54.5299 3.87127 55.1098 4.20843C55.6897 4.5456 56.1219 4.96978 56.4064 5.48097V3.84951H57.9164V12.7899H56.4064V11.1258C56.111 11.6479 55.6678 12.0829 55.077 12.431C54.497 12.7681 53.8186 12.9367 53.0418 12.9367C52.243 12.9367 51.5209 12.741 50.8753 12.3494C50.2297 11.9579 49.7209 11.4086 49.3489 10.7016C48.9769 9.99467 48.7909 9.18981 48.7909 8.28708ZM56.4064 8.30339C56.4064 7.62905 56.2696 7.04173 55.9961 6.54142C55.7225 6.0411 55.3505 5.66043 54.88 5.3994C54.4204 5.12749 53.9116 4.99153 53.3536 4.99153C52.7956 4.99153 52.2868 5.12205 51.8272 5.38308C51.3677 5.64412 51.0011 6.02479 50.7276 6.5251C50.454 7.02542 50.3172 7.61274 50.3172 8.28708C50.3172 8.97229 50.454 9.57049 50.7276 10.0817C51.0011 10.582 51.3677 10.9681 51.8272 11.24C52.2868 11.501 52.7956 11.6316 53.3536 11.6316C53.9116 11.6316 54.4204 11.501 54.88 11.24C55.3505 10.9681 55.7225 10.582 55.9961 10.0817C56.2696 9.57049 56.4064 8.97773 56.4064 8.30339Z" stroke="white" stroke-width="0.4" mask="url(#path-1-outside-1)"/>
<path d="M63.6244 12.9367C62.9351 12.9367 62.3169 12.8225 61.7698 12.5941C61.2227 12.3548 60.7905 12.0285 60.4732 11.6152C60.1559 11.1911 59.9808 10.7071 59.948 10.1633H61.4908C61.5345 10.6092 61.7424 10.9735 62.1145 11.2563C62.4974 11.5391 62.9953 11.6805 63.608 11.6805C64.177 11.6805 64.6256 11.5554 64.9539 11.3053C65.2821 11.0551 65.4463 10.7397 65.4463 10.359C65.4463 9.96748 65.2712 9.67925 64.921 9.49435C64.5709 9.29858 64.0293 9.10824 63.2962 8.92334C62.6287 8.74932 62.0816 8.5753 61.6549 8.40128C61.2391 8.21638 60.878 7.94991 60.5717 7.60186C60.2762 7.24294 60.1285 6.77526 60.1285 6.19881C60.1285 5.742 60.2653 5.32326 60.5388 4.94259C60.8124 4.56192 61.2008 4.26282 61.7041 4.04529C62.2075 3.81688 62.7819 3.70268 63.4275 3.70268C64.4232 3.70268 65.2274 3.95284 65.8402 4.45315C66.4529 4.95347 66.7812 5.63868 66.8249 6.50879H65.3314C65.2985 6.0411 65.107 5.66587 64.7569 5.38308C64.4177 5.1003 63.9582 4.9589 63.3782 4.9589C62.8421 4.9589 62.4154 5.07311 62.098 5.30151C61.7807 5.52991 61.6221 5.82901 61.6221 6.19881C61.6221 6.49247 61.7151 6.73719 61.9011 6.93297C62.098 7.11787 62.3388 7.27013 62.6232 7.38977C62.9187 7.49854 63.3235 7.62362 63.8378 7.76501C64.4834 7.93903 65.0086 8.11305 65.4134 8.28708C65.8183 8.45022 66.1629 8.70038 66.4474 9.03755C66.7429 9.37471 66.896 9.81521 66.907 10.359C66.907 10.8485 66.7702 11.289 66.4967 11.6805C66.2231 12.0721 65.8347 12.382 65.3314 12.6104C64.839 12.828 64.27 12.9367 63.6244 12.9367Z" stroke="white" stroke-width="0.4" mask="url(#path-1-outside-1)"/>
<path d="M77.2218 7.9771C77.2218 8.25988 77.2054 8.55898 77.1726 8.8744H69.9837C70.0385 9.75539 70.3394 10.446 70.8865 10.9463C71.4445 11.4358 72.1174 11.6805 72.9052 11.6805C73.5508 11.6805 74.087 11.5337 74.5137 11.24C74.9514 10.9355 75.2577 10.533 75.4328 10.0327H77.0413C76.8005 10.892 76.3191 11.5935 75.5969 12.1373C74.8748 12.6703 73.9775 12.9367 72.9052 12.9367C72.0518 12.9367 71.2858 12.7464 70.6074 12.3657C69.94 11.985 69.4148 11.4467 69.0318 10.7506C68.6488 10.0436 68.4574 9.22788 68.4574 8.30339C68.4574 7.3789 68.6434 6.56861 69.0154 5.87252C69.3874 5.17643 69.9072 4.64349 70.5746 4.27369C71.253 3.89302 72.0299 3.70268 72.9052 3.70268C73.7587 3.70268 74.5137 3.88758 75.1702 4.25738C75.8267 4.62717 76.33 5.13836 76.6802 5.79095C77.0413 6.43265 77.2218 7.16137 77.2218 7.9771ZM75.679 7.66712C75.679 7.10155 75.5532 6.61755 75.3015 6.21513C75.0498 5.80182 74.7052 5.49185 74.2675 5.2852C73.8408 5.06767 73.3648 4.9589 72.8396 4.9589C72.0846 4.9589 71.439 5.19818 70.9029 5.67675C70.3777 6.15531 70.0768 6.81876 70.0002 7.66712H75.679Z" stroke="white" stroke-width="0.4" mask="url(#path-1-outside-1)"/>
</svg>
